<svg width="300" height="300" viewBox="0 0 300 300" fill="none" xmlns="http://www.w3.org/2000/svg">
<rect width="300" height="300" fill="#1E1E1E"/>
<rect width="300" height="300" fill="white"/>
<g filter="url(#filter0_ii_0_1)">
<circle cx="150" cy="150" r="139" fill="#DFDFDF"/>
</g>
<g filter="url(#filter1_i_0_1)">
<circle cx="232" cy="128" r="31" fill="#D9D9D9"/>
</g>
<g filter="url(#filter2_i_0_1)">
<circle cx="162" cy="75" r="44" fill="#D9D9D9"/>
</g>
<g filter="url(#filter3_i_0_1)">
<circle cx="124.238" cy="216.238" r="13.2381" fill="#D9D9D9"/>
</g>
<path d="M241.308 174.488V170.089C240.017 171.712 238.264 173.04 236.051 174.073C233.837 175.106 231.624 175.622 229.411 175.622C227.216 175.622 225.113 175.207 223.102 174.377C221.11 173.547 219.34 172.358 217.79 170.808C216.241 169.259 215.051 167.488 214.221 165.496C213.391 163.486 212.976 161.383 212.976 159.188C212.976 156.993 213.391 154.899 214.221 152.907C215.051 150.897 216.241 149.117 217.79 147.567C219.34 146.018 221.11 144.828 223.102 143.998C225.113 143.168 227.216 142.753 229.411 142.753C231.606 142.753 233.801 143.27 235.996 144.303C238.209 145.317 239.98 146.645 241.308 148.287V143.888H245.845V174.488H241.308ZM229.411 146.71C226.256 146.71 223.508 147.872 221.166 150.196C218.731 152.631 217.513 155.628 217.513 159.188C217.513 162.748 218.731 165.736 221.166 168.152C223.508 170.495 226.256 171.666 229.411 171.666C232.565 171.666 235.313 170.495 237.656 168.152C240.09 165.736 241.308 162.748 241.308 159.188C241.308 155.628 240.09 152.631 237.656 150.196C235.313 147.872 232.565 146.71 229.411 146.71Z" fill="#3E3E3E"/>
<path d="M203.901 155.204C203.901 152.843 203.117 150.841 201.549 149.2C199.981 147.54 198.026 146.71 195.684 146.71C193.341 146.71 191.386 147.54 189.818 149.2C188.25 150.841 187.466 152.843 187.466 155.204V174.488H182.929V155.204C182.929 152.843 182.145 150.841 180.577 149.2C179.009 147.54 177.054 146.71 174.711 146.71C172.369 146.71 170.414 147.53 168.846 149.172C167.278 150.814 166.494 152.824 166.494 155.204V174.488H161.957V143.888H166.494V146.71C167.379 145.511 168.578 144.552 170.091 143.832C171.603 143.113 173.144 142.753 174.711 142.753C176.851 142.772 178.834 143.27 180.66 144.247C182.505 145.206 184.017 146.534 185.198 148.231C186.489 146.461 188.038 145.105 189.846 144.164C191.653 143.223 193.599 142.753 195.684 142.753C197.251 142.753 198.792 143.057 200.304 143.666C201.835 144.256 203.2 145.096 204.399 146.184C207.092 148.656 208.438 151.764 208.438 155.508V174.488H203.901V155.204Z" fill="#3E3E3E"/>
<path d="M149.395 174.488V170.089C148.104 171.712 146.352 173.04 144.139 174.073C141.925 175.106 139.712 175.622 137.498 175.622C135.303 175.622 133.201 175.207 131.19 174.377C129.198 173.547 127.427 172.358 125.878 170.808C124.328 169.259 123.139 167.488 122.309 165.496C121.479 163.486 121.064 161.383 121.064 159.188C121.064 156.993 121.479 154.899 122.309 152.907C123.139 150.897 124.328 149.117 125.878 147.567C127.427 146.018 129.198 144.828 131.19 143.998C133.201 143.168 135.303 142.753 137.498 142.753C139.693 142.753 141.888 143.27 144.083 144.303C146.297 145.317 148.067 146.645 149.395 148.287V143.888H153.933V174.488H149.395ZM137.498 146.71C134.344 146.71 131.596 147.872 129.253 150.196C126.819 152.631 125.601 155.628 125.601 159.188C125.601 162.748 126.819 165.736 129.253 168.152C131.596 170.495 134.344 171.666 137.498 171.666C140.652 171.666 143.401 170.495 145.743 168.152C148.178 165.736 149.395 162.748 149.395 159.188C149.395 155.628 148.178 152.631 145.743 150.196C143.401 147.872 140.652 146.71 137.498 146.71Z" fill="#3E3E3E"/>
<path d="M106.234 174.488V143.888H110.771V146.156C111.472 145.16 112.551 144.349 114.008 143.722C115.465 143.076 117.033 142.753 118.712 142.753V146.71C116.498 146.71 114.617 147.53 113.068 149.172C111.537 150.795 110.771 152.806 110.771 155.204V174.488H106.234Z" fill="#3E3E3E"/>
<path d="M93.6171 174.488V170.089C92.326 171.712 90.5737 173.04 88.3603 174.073C86.1468 175.106 83.9334 175.622 81.72 175.622C79.525 175.622 77.4223 175.207 75.4117 174.377C73.4197 173.547 71.6489 172.358 70.0995 170.808C68.5501 169.259 67.3604 167.488 66.5304 165.496C65.7004 163.486 65.2853 161.383 65.2853 159.188C65.2853 156.993 65.7004 154.899 66.5304 152.907C67.3604 150.897 68.5501 149.117 70.0995 147.567C71.6489 146.018 73.4197 144.828 75.4117 143.998C77.4223 143.168 79.525 142.753 81.72 142.753C83.915 142.753 86.1099 143.27 88.3049 144.303C90.5183 145.317 92.2891 146.645 93.6171 148.287V143.888H98.1547V174.488H93.6171ZM81.72 146.71C78.5659 146.71 75.8175 147.872 73.475 150.196C71.0402 152.631 69.8229 155.628 69.8229 159.188C69.8229 162.748 71.0402 165.736 73.475 168.152C75.8175 170.495 78.5659 171.666 81.72 171.666C84.8741 171.666 87.6225 170.495 89.965 168.152C92.3998 165.736 93.6171 162.748 93.6171 159.188C93.6171 155.628 92.3998 152.631 89.965 150.196C87.6225 147.872 84.8741 146.71 81.72 146.71Z" fill="#3E3E3E"/>
<path d="M49 175L49 114H68.4832C73.0732 114 76.9674 115.405 80.1658 118.214C83.3886 121.002 85 124.397 85 128.398C85 132.378 83.3886 135.772 80.1658 138.582C76.9674 141.37 73.0732 142.764 68.4832 142.764H55.0061V175H49ZM68.4832 138.199C71.413 138.199 73.8911 137.262 75.9176 135.389C77.9685 133.495 78.9939 131.165 78.9939 128.398C78.9939 125.61 77.9685 123.279 75.9176 121.406C73.8911 119.512 71.413 118.565 68.4832 118.565H55.0061V138.199H68.4832Z" fill="#B89632"/>
<rect x="92" y="126" width="154" height="6" rx="2" fill="#3E3E3E"/>
<rect x="49" y="185" width="197" height="7" rx="2" fill="#3E3E3E"/>
<defs>
<filter id="filter0_ii_0_1" x="11" y="7" width="281" height="286" filterUnits="userSpaceOnUse" color-interpolation-filters="sRGB">
<feFlood flood-opacity="0" result="BackgroundImageFix"/>
<feBlend mode="normal" in="SourceGraphic" in2="BackgroundImageFix" result="shape"/>
<feColorMatrix in="SourceAlpha" type="matrix" values="0 0 0 0 0 0 0 0 0 0 0 0 0 0 0 0 0 0 127 0" result="hardAlpha"/>
<feOffset dx="3" dy="4"/>
<feGaussianBlur stdDeviation="2"/>
<feComposite in2="hardAlpha" operator="arithmetic" k2="-1" k3="1"/>
<feColorMatrix type="matrix" values="0 0 0 0 0.988772 0 0 0 0 0.991667 0 0 0 0 0.847049 0 0 0 0.63 0"/>
<feBlend mode="normal" in2="shape" result="effect1_innerShadow_0_1"/>
<feColorMatrix in="SourceAlpha" type="matrix" values="0 0 0 0 0 0 0 0 0 0 0 0 0 0 0 0 0 0 127 0" result="hardAlpha"/>
<feOffset dy="-10"/>
<feGaussianBlur stdDeviation="2"/>
<feComposite in2="hardAlpha" operator="arithmetic" k2="-1" k3="1"/>
<feColorMatrix type="matrix" values="0 0 0 0 0 0 0 0 0 0 0 0 0 0 0 0 0 0 0.25 0"/>
<feBlend mode="normal" in2="effect1_innerShadow_0_1" result="effect2_innerShadow_0_1"/>
</filter>
<filter id="filter1_i_0_1" x="201" y="97" width="62" height="63" filterUnits="userSpaceOnUse" color-interpolation-filters="sRGB">
<feFlood flood-opacity="0" result="BackgroundImageFix"/>
<feBlend mode="normal" in="SourceGraphic" in2="BackgroundImageFix" result="shape"/>
<feColorMatrix in="SourceAlpha" type="matrix" values="0 0 0 0 0 0 0 0 0 0 0 0 0 0 0 0 0 0 127 0" result="hardAlpha"/>
<feOffset dy="1"/>
<feGaussianBlur stdDeviation="2"/>
<feComposite in2="hardAlpha" operator="arithmetic" k2="-1" k3="1"/>
<feColorMatrix type="matrix" values="0 0 0 0 0 0 0 0 0 0 0 0 0 0 0 0 0 0 0.25 0"/>
<feBlend mode="normal" in2="shape" result="effect1_innerShadow_0_1"/>
</filter>
<filter id="filter2_i_0_1" x="118" y="31" width="88" height="89" filterUnits="userSpaceOnUse" color-interpolation-filters="sRGB">
<feFlood flood-opacity="0" result="BackgroundImageFix"/>
<feBlend mode="normal" in="SourceGraphic" in2="BackgroundImageFix" result="shape"/>
<feColorMatrix in="SourceAlpha" type="matrix" values="0 0 0 0 0 0 0 0 0 0 0 0 0 0 0 0 0 0 127 0" result="hardAlpha"/>
<feOffset dy="1"/>
<feGaussianBlur stdDeviation="2"/>
<feComposite in2="hardAlpha" operator="arithmetic" k2="-1" k3="1"/>
<feColorMatrix type="matrix" values="0 0 0 0 0 0 0 0 0 0 0 0 0 0 0 0 0 0 0.25 0"/>
<feBlend mode="normal" in2="shape" result="effect1_innerShadow_0_1"/>
</filter>
<filter id="filter3_i_0_1" x="111" y="203" width="26.4762" height="27.4762" filterUnits="userSpaceOnUse" color-interpolation-filters="sRGB">
<feFlood flood-opacity="0" result="BackgroundImageFix"/>
<feBlend mode="normal" in="SourceGraphic" in2="BackgroundImageFix" result="shape"/>
<feColorMatrix in="SourceAlpha" type="matrix" values="0 0 0 0 0 0 0 0 0 0 0 0 0 0 0 0 0 0 127 0" result="hardAlpha"/>
<feOffset dy="1"/>
<feGaussianBlur stdDeviation="2"/>
<feComposite in2="hardAlpha" operator="arithmetic" k2="-1" k3="1"/>
<feColorMatrix type="matrix" values="0 0 0 0 0 0 0 0 0 0 0 0 0 0 0 0 0 0 0.25 0"/>
<feBlend mode="normal" in2="shape" result="effect1_innerShadow_0_1"/>
</filter>
</defs>
</svg>
